<svg id="Layer_1" enable-background="new 0 0 2048 2048" viewBox="0 0 2048 2048" xmlns="http://www.w3.org/2000/svg"><g><g><g><path d="m1654.36 1343.905h-1260.72c-42.237 0-76.6-34.363-76.6-76.601v-856.189c0-42.243 34.363-76.61 76.6-76.61h1260.72c42.237 0 76.6 34.367 76.6 76.61v856.189c0 42.238-34.362 76.601-76.6 76.601zm-1260.72-961.4c-15.77 0-28.6 12.834-28.6 28.61v856.189c0 15.771 12.83 28.601 28.6 28.601h1260.72c15.77 0 28.6-12.83 28.6-28.601v-856.189c0-15.776-12.83-28.61-28.6-28.61z" fill="rgb(0,0,0)"/></g><g><path d="m1706.956 1175.071h-1365.912c-13.255 0-24-10.745-24-24s10.745-24 24-24h1365.912c13.255 0 24 10.745 24 24s-10.745 24-24 24z" fill="rgb(0,0,0)"/></g><g><path d="m838.163 1585.555c-1.55 0-3.121-.151-4.699-.464-13.001-2.581-21.448-15.213-18.867-28.215l47.973-241.646c2.581-13.002 15.213-21.442 28.214-18.867 13.001 2.581 21.448 15.213 18.867 28.215l-47.973 241.646c-2.268 11.422-12.296 19.331-23.515 19.331z" fill="rgb(0,0,0)"/></g><g><path d="m1161.864 1585.555c-11.22 0-21.247-7.908-23.516-19.331l-47.974-241.646c-2.581-13.002 5.866-25.633 18.867-28.215 13.01-2.577 25.633 5.867 28.215 18.867l47.974 241.646c2.581 13.001-5.866 25.634-18.867 28.215-1.578.312-3.15.464-4.699.464z" fill="rgb(0,0,0)"/></g><g><path d="m1313.575 1713.495h-627.123c-13.255 0-24-10.745-24-24 0-83.783 68.163-151.945 151.945-151.945h371.233c83.783 0 151.945 68.162 151.945 151.945 0 13.255-10.745 24-24 24zm-600.327-48h573.531c-10.86-45.786-52.09-79.945-101.149-79.945h-371.233c-49.06 0-90.289 34.159-101.149 79.945z" fill="rgb(0,0,0)"/></g></g><g><g><g><g><path d="m587.801 746.9c-46.559 0-84.437-37.878-84.437-84.437s37.878-84.437 84.437-84.437 84.437 37.878 84.437 84.437-37.879 84.437-84.437 84.437zm0-120.873c-20.091 0-36.437 16.346-36.437 36.437s16.345 36.437 36.437 36.437 36.437-16.345 36.437-36.437-16.346-36.437-36.437-36.437z" fill="rgb(0,0,0)"/></g><g><path d="m827.937 686.464h-179.699c-13.255 0-24-10.745-24-24s10.745-24 24-24h179.699c13.255 0 24 10.745 24 24s-10.746 24-24 24z" fill="rgb(0,0,0)"/></g><g><path d="m715.844 746.9c-13.255 0-24-10.745-24-24v-60.437c0-13.255 10.745-24 24-24s24 10.745 24 24v60.437c0 13.255-10.745 24-24 24z" fill="rgb(0,0,0)"/></g><g><path d="m781.376 721.379c-13.255 0-24-10.745-24-24v-34.916c0-13.255 10.745-24 24-24s24 10.745 24 24v34.916c0 13.255-10.745 24-24 24z" fill="rgb(0,0,0)"/></g></g><g><g><path d="m677.65 904.602c-64.677 0-125.483-25.187-171.217-70.92-45.733-45.734-70.92-106.54-70.92-171.217s25.187-125.483 70.92-171.217c45.734-45.733 106.54-70.92 171.217-70.92s125.483 25.187 171.217 70.92c45.733 45.734 70.92 106.54 70.92 171.217s-25.187 125.483-70.92 171.217c-45.733 45.733-106.539 70.92-171.217 70.92zm0-436.185c-49.714 0-99.429 18.924-137.276 56.771-75.694 75.694-75.694 198.857 0 274.552s198.857 75.694 274.552 0 75.694-198.857 0-274.552c-37.847-37.847-87.561-56.771-137.276-56.771z" fill="rgb(0,0,0)"/></g><g><g><path d="m1037.922 1086.151c-16.248.001-32.497-6.185-44.866-18.554l-208.539-208.538c-9.373-9.373-9.373-24.569 0-33.941s24.568-9.372 33.941 0l208.538 208.539c6.025 6.023 15.827 6.024 21.851 0 2.919-2.919 4.526-6.799 4.526-10.926s-1.607-8.007-4.526-10.925l-208.538-208.539c-9.373-9.373-9.373-24.569 0-33.941s24.568-9.372 33.941 0l208.538 208.538c11.984 11.984 18.585 27.918 18.585 44.867s-6.601 32.883-18.585 44.867c-12.37 12.369-28.618 18.553-44.866 18.553z" fill="rgb(0,0,0)"/></g><g><path d="m849.954 914.555c-6.142 0-12.284-2.343-16.971-7.029-9.373-9.373-9.373-24.569 0-33.941l55.792-55.792c9.373-9.372 24.568-9.372 33.941 0 9.373 9.373 9.373 24.569 0 33.941l-55.792 55.792c-4.686 4.685-10.828 7.029-16.97 7.029z" fill="rgb(0,0,0)"/></g></g></g></g><g><g><path d="m1588.487 533.885h-552.439c-13.255 0-24-10.745-24-24s10.745-24 24-24h552.439c13.255 0 24 10.745 24 24s-10.745 24-24 24z" fill="rgb(0,0,0)"/></g><g><path d="m1588.487 657.666h-539.024c-13.255 0-24-10.745-24-24s10.745-24 24-24h539.024c13.255 0 24 10.745 24 24s-10.745 24-24 24z" fill="rgb(0,0,0)"/></g><g><path d="m1588.487 781.446h-539.024c-13.255 0-24-10.745-24-24s10.745-24 24-24h539.024c13.255 0 24 10.745 24 24s-10.745 24-24 24z" fill="rgb(0,0,0)"/></g><g><path d="m1588.487 905.227h-368.293c-13.255 0-24-10.745-24-24s10.745-24 24-24h368.293c13.255 0 24 10.745 24 24s-10.745 24-24 24z" fill="rgb(0,0,0)"/></g><g><path d="m1588.487 1029.008h-368.293c-13.255 0-24-10.746-24-24s10.745-24 24-24h368.293c13.255 0 24 10.745 24 24s-10.745 24-24 24z" fill="rgb(0,0,0)"/></g></g></g></g></svg>