<svg id="Line" viewBox="0 0 64 64" xmlns="http://www.w3.org/2000/svg"><path d="m50.16504 36.31641c.48193-.08057.83496-.49756.83496-.98633v-6.66016c0-.48877-.35303-.90576-.83496-.98633l-2.44434-.40869-1.26465-3.0459 1.43848-2.01855c.2832-.39795.23779-.94238-.10742-1.2876l-4.70996-4.70996c-.34375-.34473-.88818-.39111-1.2876-.10742l-2.01855 1.43848s-3.0459-1.26465-3.0459-1.26465-.40869-2.44434-.40869-2.44434c-.08057-.48193-.49756-.83496-.98633-.83496h-6.66016c-.48877 0-.90576.35303-.98633.83496 0 0-.40869 2.44434-.40869 2.44434s-3.0459 1.26465-3.0459 1.26465-2.01855-1.43848-2.01855-1.43848c-.39844-.2832-.94287-.23779-1.2876.10742 0 0-4.70996 4.70996-4.70996 4.70996-.34521.34521-.39062.88965-.10742 1.2876l1.43945 2.01953-1.26514 3.04492-2.3623.39502c-.51367.04199-.91748.47217-.91748.99658v6.66699c.02991 1.31593 1.97301 1.3153 2-.00004v-5.81685l2.15527-.36035c.33936-.05664.62549-.28418.75781-.60156l1.69141-4.07324c.13135-.31787.08984-.68115-.10986-.96191l-1.26904-1.78076 3.51318-3.51318 1.78076 1.26904c.28125.19971.64648.24121.96387.10889l4.06982-1.68994c.31836-.13184.54639-.41846.60303-.7583 0 0 .36035-2.15527.36035-2.15527h4.9668l.36035 2.15527c.05664.33984.28467.62646.60303.7583 0 0 4.06982 1.68994 4.06982 1.68994.31689.13232.68311.09082.96387-.10889 0 0 1.78076-1.26904 1.78076-1.26904l3.51318 3.51318s-1.26904 1.78076-1.26904 1.78076c-.2002.28125-.24121.64551-.10889.96387 0 0 1.68994 4.06982 1.68994 4.06982.13184.31836.41846.54639.7583.60303l2.15527.36035v4.9668l-2.15527.36035c-.33984.05664-.62646.28467-.7583.60303l-1.68994 4.06982c-.13232.31836-.09131.68262.10889.96387l1.26904 1.78076-3.51318 3.51318s-1.78076-1.26904-1.78076-1.26904c-.28076-.2002-.64697-.24072-.96387-.10889l-4.06982 1.68994c-.31836.13184-.54639.41846-.60303.7583l-.36035 2.15527h-4.9668l-.36035-2.15527c-.05664-.33984-.28467-.62646-.60303-.7583l-4.06982-1.68994c-.31738-.13184-.68262-.09131-.96387.10889l-1.78076 1.26904-3.51318-3.51318s1.26904-1.78076 1.26904-1.78076c.51707-.64392-.25222-1.66857-.55027-2.56203-.51411-1.20769-2.33366-.45904-1.84864.76275-.00002-.00004.4492 1.08883.4492 1.08883l-1.43945 2.01953c-.2832.39795-.23779.94238.10742 1.2876 0 0 4.70996 4.70996 4.70996 4.70996.34521.34619.89014.3916 1.2876.10742l2.01855-1.43848 3.0459 1.26465s.40869 2.44434.40869 2.44434c.08057.48193.49756.83496.98633.83496h6.66016c.48877 0 .90576-.35303.98633-.83496 0 0 .40869-2.44434.40869-2.44434l3.0459-1.26465 2.01855 1.43848c.39844.28271.94287.23828 1.2876-.10742l4.70996-4.70996c.34521-.34521.39062-.88965.10742-1.2876 0 0-1.43848-2.01855-1.43848-2.01855s1.26465-3.0459 1.26465-3.0459 2.44434-.40869 2.44434-.40869z"/><path d="m32 24c1.34619 0 2.68359.34424 3.86816.99609.48389.26758 1.0918.08984 1.35791-.39404.94023-1.9106-3.99773-2.62808-5.22601-2.60213-10.28338.06806-13.79414 13.74066-4.83193 18.75597 8.75575 4.77623 18.36429-4.83333 13.58761-13.58803-.6395-1.14113-2.37549-.18516-1.75181.96403.65183 1.18452.99607 2.52192.99607 3.86811.10117 5.97764-6.68655 9.97686-11.8658 7.00523-7.16929-4.01402-4.36084-14.95079 3.8658-15.00523z"/><path d="m53.71387 15.93555c-.45557.3125-.57129.93506-.2583 1.39014 16.84088 25.08361-15.33017 53.66559-38.31271 34.45658.00046.00026 2.85666-.40776 2.85666-.40776 1.29803-.21051 1.02283-2.13949-.28324-1.97948.00004 0-4.94967.70702-4.94967.70702-.43628.07539-.77419.40929-.84811.84817-.00003-.00003-.70706 4.94968-.70706 4.94968-.16114 1.29726 1.76492 1.58856 1.9795.28316 0 .00004.43694-3.05873.43694-3.05873 24.9459 21.02916 59.55603-9.74075 41.47574-36.93069-.31211-.45438-.93466-.57254-1.38974-.25809z"/><path d="m9.72119 48.24023c.78476.013 1.28259-.92527.82323-1.56595-16.50751-25.44334 14.7793-53.55874 38.31239-34.45671-.00012-.00011-2.85633.40791-2.85633.40791-1.30549.21256-1.01212 2.14579.28324 1.97949-.00004 0 4.94967-.70702 4.94967-.70702.43603-.07511.77437-.40949.84811-.84817.00003.00003.70707-4.94968.70707-4.94968.16078-1.3002-1.77052-1.58587-1.9795-.28316 0-.00004-.43694 3.05873-.43694 3.05873-17.89371-15.71398-46.45463-2.71122-46.37197 21.12466-.00016 5.67545 1.69271 11.14079 4.89584 15.80582.19385.28223.50684.43408.8252.43408z"/></svg>